<svg xmlns="http://www.w3.org/2000/svg" version="1.1" xmlns:xlink="http://www.w3.org/1999/xlink" xmlns:svgjs="http://svgjs.dev/svgjs" width="2000" height="575" viewBox="0 0 2000 575"><g transform="matrix(1,0,0,1,-1.2121212121212466,0.676843802861697)"><svg viewBox="0 0 396 114" data-background-color="#ffffff" preserveAspectRatio="xMidYMid meet" height="575" width="2000" xmlns="http://www.w3.org/2000/svg" xmlns:xlink="http://www.w3.org/1999/xlink"><g id="tight-bounds" transform="matrix(1,0,0,1,0.2400000000000091,-0.13419164091519065)"><svg viewBox="0 0 395.52 114.26838328183037" height="114.26838328183037" width="395.52"><g><svg viewBox="0 0 600.3522275642912 173.44578894472357" height="114.26838328183037" width="395.52"><g transform="matrix(1,0,0,1,204.83222756429117,53.597266331658275)"><svg viewBox="0 0 395.52 66.25125628140702" height="66.25125628140702" width="395.52"><g id="textblocktransform"><svg viewBox="0 0 395.52 66.25125628140702" height="66.25125628140702" width="395.52" id="textblock"><g><svg viewBox="0 0 395.52 66.25125628140702" height="66.25125628140702" width="395.52"><g transform="matrix(1,0,0,1,0,0)"><svg width="395.52" viewBox="2 -34.5 208.93 35" height="66.25125628140702" data-palette-color="#0080ff"><path d="M33.55-0.4L33.75-0.4 33.75 0 26.3 0 12.75-17.9 9.95-14.7 9.95-0.8 14.3-0.4 14.3 0 2 0 2-0.4 6.1-0.8 6.1-33.7 2-34.1 2-34.5 14.3-34.5 14.3-34.1 9.95-33.7 9.95-15.6 23.55-31.3Q24.35-32.25 24.35-32.85L24.35-32.85Q24.35-33.35 23.58-33.6 22.8-33.85 20.45-34.1L20.45-34.1 20.45-34.5 30.65-34.5 30.65-34.1Q27.75-33.6 26.73-33.15 25.7-32.7 24.55-31.4L24.55-31.4 15.4-20.9 29.85-2Q30.7-1.05 31.43-0.73 32.15-0.4 33.55-0.4L33.55-0.4ZM52.1-0.8L55.1-0.4 55.1 0 45.8 0 45.8-0.4 48.85-0.8 48.85-13.55Q48.85-15.5 48.75-16.45 48.65-17.4 48.35-18.05L48.35-18.05Q47.95-18.9 47.02-19.38 46.1-19.85 44.9-19.85L44.9-19.85Q42.35-19.85 40.35-17.7L40.35-17.7 40.35-0.8 43.4-0.4 43.4 0 34.05 0 34.05-0.4 37.1-0.8 37.1-18.05 34.15-19.15 34.15-19.5 39.8-21.45 40.2-21.45 40.2-18.3Q43.4-21.7 46.9-21.7L46.9-21.7Q48.45-21.7 49.72-21.03 51-20.35 51.55-19.25L51.55-19.25Q51.9-18.6 52-17.48 52.1-16.35 52.1-13.55L52.1-13.55 52.1-0.8ZM67.8-21.7Q70.7-21.7 72.95-20.3 75.2-18.9 76.45-16.38 77.7-13.85 77.7-10.6L77.7-10.6Q77.7-7.35 76.45-4.83 75.2-2.3 72.95-0.9 70.7 0.5 67.8 0.5L67.8 0.5Q64.9 0.5 62.65-0.9 60.4-2.3 59.15-4.83 57.9-7.35 57.9-10.6L57.9-10.6Q57.9-13.85 59.15-16.38 60.4-18.9 62.65-20.3 64.9-21.7 67.8-21.7L67.8-21.7ZM61.6-10.6Q61.6-5.6 63.25-2.8 64.9 0 67.8 0L67.8 0Q70.7 0 72.35-2.8 74-5.6 74-10.6L74-10.6Q74-15.6 72.35-18.4 70.7-21.2 67.8-21.2L67.8-21.2Q64.9-21.2 63.25-18.4 61.6-15.6 61.6-10.6L61.6-10.6ZM102.14-21.2L110.19-21.2 110.19-20.8Q107.99-20.45 107.09-19.78 106.19-19.1 105.64-17.35L105.64-17.35 99.94 0.15 99.39 0.15 94.19-15.1 89.19 0.15 88.64 0.15 81.89-19.1Q81.69-19.75 81.44-20.05 81.19-20.35 80.67-20.5 80.14-20.65 78.89-20.8L78.89-20.8 78.89-21.2 87.84-21.2 87.84-20.8Q86.34-20.7 85.87-20.48 85.39-20.25 85.39-19.8L85.39-19.8Q85.39-19.45 85.69-18.6L85.69-18.6 90.04-5.3 90.24-5.3 93.79-16.2 92.89-18.85Q92.54-19.8 92.02-20.23 91.49-20.65 90.14-20.8L90.14-20.8 90.14-21.2 98.59-21.2 98.59-20.8Q97.09-20.7 96.62-20.48 96.14-20.25 96.14-19.8L96.14-19.8Q96.14-19.45 96.44-18.6L96.44-18.6 100.84-5.3 101.04-5.3 104.89-17.4Q105.19-18.4 105.19-18.95L105.19-18.95Q105.19-19.75 104.54-20.13 103.89-20.5 102.14-20.8L102.14-20.8 102.14-21.2ZM142.64-34.1L138.54-33.7 138.54-0.8 142.64-0.4 142.64 0 130.34 0 130.34-0.4 134.69-0.8 134.69-17.75 118.04-17.75 118.04-0.8 122.39-0.4 122.39 0 110.09 0 110.09-0.4 114.19-0.8 114.19-33.7 110.09-34.1 110.09-34.5 122.39-34.5 122.39-34.1 118.04-33.7 118.04-18.55 134.69-18.55 134.69-33.7 130.34-34.1 130.34-34.5 142.64-34.5 142.64-34.1ZM154.74-21.7Q157.64-21.7 159.89-20.3 162.14-18.9 163.39-16.38 164.64-13.85 164.64-10.6L164.64-10.6Q164.64-7.35 163.39-4.83 162.14-2.3 159.89-0.9 157.64 0.5 154.74 0.5L154.74 0.5Q151.84 0.5 149.59-0.9 147.34-2.3 146.09-4.83 144.84-7.35 144.84-10.6L144.84-10.6Q144.84-13.85 146.09-16.38 147.34-18.9 149.59-20.3 151.84-21.7 154.74-21.7L154.74-21.7ZM148.54-10.6Q148.54-5.6 150.19-2.8 151.84 0 154.74 0L154.74 0Q157.64 0 159.29-2.8 160.94-5.6 160.94-10.6L160.94-10.6Q160.94-15.6 159.29-18.4 157.64-21.2 154.74-21.2L154.74-21.2Q151.84-21.2 150.19-18.4 148.54-15.6 148.54-10.6L148.54-10.6ZM189.09-21.2L197.14-21.2 197.14-20.8Q194.94-20.45 194.04-19.78 193.14-19.1 192.59-17.35L192.59-17.35 186.89 0.15 186.34 0.15 181.14-15.1 176.14 0.15 175.59 0.15 168.84-19.1Q168.64-19.75 168.39-20.05 168.14-20.35 167.61-20.5 167.09-20.65 165.84-20.8L165.84-20.8 165.84-21.2 174.78-21.2 174.78-20.8Q173.28-20.7 172.81-20.48 172.34-20.25 172.34-19.8L172.34-19.8Q172.34-19.45 172.64-18.6L172.64-18.6 176.99-5.3 177.19-5.3 180.74-16.2 179.84-18.85Q179.49-19.8 178.96-20.23 178.44-20.65 177.09-20.8L177.09-20.8 177.09-21.2 185.54-21.2 185.54-20.8Q184.03-20.7 183.56-20.48 183.09-20.25 183.09-19.8L183.09-19.8Q183.09-19.45 183.39-18.6L183.39-18.6 187.79-5.3 187.99-5.3 191.84-17.4Q192.14-18.4 192.14-18.95L192.14-18.95Q192.14-19.75 191.49-20.13 190.84-20.5 189.09-20.8L189.09-20.8 189.09-21.2ZM205.58-21.7Q202.08-21.7 200.16-20.15 198.23-18.6 198.23-15.8L198.23-15.8Q198.23-14.05 198.93-12.9 199.63-11.75 200.66-11.08 201.68-10.4 203.38-9.55L203.38-9.55Q205.68-8.45 206.83-7.4 207.98-6.35 207.98-4.3L207.98-4.3Q207.98-2.4 206.88-1.23 205.78-0.05 203.93-0.05L203.93-0.05Q201.88-0.05 200.61-1.73 199.33-3.4 198.83-6.9L198.83-6.9 198.23-6.9 198.48-0.4Q199.53 0 201.03 0.25 202.53 0.5 203.73 0.5L203.73 0.5Q207.03 0.5 208.98-1.28 210.93-3.05 210.93-6.1L210.93-6.1Q210.93-7.95 210.21-9.15 209.48-10.35 208.46-11.03 207.43-11.7 205.68-12.5L205.68-12.5Q203.43-13.55 202.33-14.53 201.23-15.5 201.23-17.4L201.23-17.4Q201.23-19.1 202.23-20.13 203.23-21.15 204.88-21.15L204.88-21.15Q206.68-21.15 207.76-19.8 208.83-18.45 209.53-15.45L209.53-15.45 210.08-15.45 210.08-21Q209.28-21.3 208.03-21.5 206.78-21.7 205.58-21.7L205.58-21.7Z" opacity="1" transform="matrix(1,0,0,1,0,0)" fill="#0080ff" class="wordmark-text-0" data-fill-palette-color="primary" id="text-0"></path></svg></g></svg></g></svg></g></svg></g><g><svg viewBox="0 0 189.19189598640173 173.44578894472357" height="173.44578894472357" width="189.19189598640173"><g><svg xmlns="http://www.w3.org/2000/svg" xmlns:xlink="http://www.w3.org/1999/xlink" version="1.1" x="0" y="0" viewBox="7.97700000000001 11.475 84.04600000000002 77.05100000000002" enable-background="new 0 0 100 100" xml:space="preserve" height="173.44578894472357" width="189.19189598640173" class="icon-icon-0" data-fill-palette-color="accent" id="icon-0"><g fill="#0023ff" data-fill-palette-color="accent"><path d="M25.721 40.943c-0.242-0.062-0.488-0.094-0.733-0.094-1.333 0-2.496 0.903-2.83 2.196-0.4 1.56 0.543 3.157 2.104 3.56 1.551 0.402 3.167-0.571 3.562-2.102C28.226 42.942 27.282 41.344 25.721 40.943z" fill="#0023ff" data-fill-palette-color="accent"></path><path d="M67.898 29.559c-0.241-0.062-0.487-0.094-0.731-0.094-1.332 0-2.494 0.904-2.827 2.198-0.195 0.757-0.083 1.544 0.313 2.216 0.397 0.672 1.032 1.148 1.788 1.342 1.566 0.408 3.167-0.568 3.562-2.1 0.194-0.756 0.083-1.543-0.314-2.216C69.291 30.232 68.655 29.753 67.898 29.559z" fill="#0023ff" data-fill-palette-color="accent"></path><path d="M50.584 47.346c-0.24-0.062-0.486-0.093-0.731-0.093-1.332 0-2.494 0.903-2.827 2.196-0.196 0.757-0.084 1.544 0.312 2.217s1.032 1.149 1.787 1.344c1.563 0.401 3.166-0.571 3.56-2.1C53.087 49.346 52.145 47.749 50.584 47.346z" fill="#0023ff" data-fill-palette-color="accent"></path><path d="M88.678 38.92c0.084-0.613 0.143-1.234 0.143-1.871 0-6.816-4.968-12.46-11.476-13.543-3.297-5.928-9.617-9.943-16.88-9.943-2.505 0-4.891 0.492-7.086 1.36-2.682-2.153-6.08-3.448-9.785-3.448-4.819 0-9.125 2.18-11.997 5.604-1.009-0.242-2.056-0.385-3.138-0.385-7.344 0-13.301 5.911-13.388 13.235-4.245 2.557-7.094 7.196-7.094 12.513 0 8.069 6.544 14.612 14.615 14.612 0.171 0 0.337-0.02 0.507-0.025 3.237 5.773 9.35 9.704 16.4 9.864 1.442 5.739 2.426 12.88 2.426 20.209 0 0.786 0.64 1.424 1.427 1.424h7.131c0.787 0 1.427-0.638 1.427-1.424 0-7.687 1.082-15.162 2.641-21.035 1.849 1.076 3.99 1.703 6.282 1.703 3.494 0 6.649-1.432 8.921-3.737 1.837 0.715 3.827 1.121 5.917 1.121 9.031 0 16.352-7.32 16.352-16.352C92.022 45.084 90.768 41.667 88.678 38.92zM72.628 33.797c-0.641 2.491-2.882 4.23-5.45 4.23-0.475 0-0.95-0.061-1.413-0.181-0.509-0.13-0.976-0.35-1.418-0.606l-9.71 9.972c0.781 1.262 1.072 2.826 0.673 4.374-0.641 2.489-2.882 4.229-5.45 4.229-0.474 0-0.949-0.061-1.411-0.18-1.455-0.374-2.68-1.294-3.445-2.591s-0.979-2.814-0.603-4.272c0.123-0.478 0.321-0.917 0.553-1.333l-5.218-4.896-9.125 1.614c-0.023 0.34-0.073 0.682-0.161 1.023-0.644 2.491-2.886 4.23-5.454 4.23-0.474 0-0.949-0.061-1.411-0.18-3.006-0.775-4.824-3.853-4.052-6.86 0.644-2.492 2.887-4.231 5.456-4.231 0.473 0 0.947 0.06 1.409 0.179 1.729 0.444 3.062 1.653 3.738 3.17l9.795-1.733c0.421-0.077 0.853 0.054 1.164 0.346l5.711 5.359c0.888-0.575 1.931-0.918 3.047-0.918 0.473 0 0.947 0.06 1.408 0.179 0.518 0.133 0.996 0.339 1.436 0.597l9.697-9.958c-0.021-0.036-0.052-0.065-0.073-0.101-0.767-1.296-0.981-2.813-0.605-4.271 0.64-2.492 2.882-4.233 5.452-4.233 0.473 0 0.947 0.061 1.408 0.18 1.458 0.375 2.683 1.296 3.448 2.594C72.789 30.824 73.003 32.34 72.628 33.797z" fill="#0023ff" data-fill-palette-color="accent"></path></g></svg></g></svg></g></svg></g><defs></defs></svg><rect width="395.52" height="114.26838328183037" fill="none" stroke="none" visibility="hidden"></rect></g></svg></g></svg>